<svg viewBox="0 0 451.2 192.5" xmlns="http://www.w3.org/2000/svg"><style>.st0{fill:url(#h)}.st1{fill:url(#g)}.st2{fill:url(#f)}.st3{fill:url(#e)}.st4{fill:url(#d)}.st5{fill:url(#c)}.st6{fill:url(#b)}.st7{fill:url(#a)}</style><linearGradient id="h" x1="103.13" x2="314.78" y1="68.325" y2="81.314" gradientUnits="userSpaceOnUse"><stop stop-color="#0283C9" offset="0"/><stop stop-color="#30B9F0" offset="1"/></linearGradient><path class="st0" d="M67.8 22.1h56.8c6.1 0 11-4.9 11-11s-4.9-11-11-11H67.8C30.4 0 0 30.4 0 67.8s30.4 67.8 67.8 67.8h56.8c6.1 0 11-4.9 11-11s-4.9-11-11-11H67.8C42.5 113.6 22 93.1 22 67.8s20.6-45.7 45.8-45.7z"/><linearGradient id="g" x1="101.78" x2="313.43" y1="90.352" y2="103.34" gradientUnits="userSpaceOnUse"><stop stop-color="#0283C9" offset="0"/><stop stop-color="#30B9F0" offset="1"/></linearGradient><path class="st1" d="M225.6 0h-56.8c-6.1 0-11 4.9-11 11s4.9 11 11 11h56.8c25.3 0 45.8 20.5 45.8 45.8s-20.5 45.8-45.8 45.8h-28.4c-21.7 0-39.4 17.7-39.4 39.4v28.4c0 6.1 4.9 11 11 11s11-4.9 11-11V153c0-9.6 7.8-17.4 17.4-17.4h28.4c37.4 0 67.8-30.4 67.8-67.8S263 0 225.6 0z"/><linearGradient id="f" x1="104.32" x2="315.97" y1="49.035" y2="62.024" gradientUnits="userSpaceOnUse"><stop stop-color="#0283C9" offset="0"/><stop stop-color="#30B9F0" offset="1"/></linearGradient><path class="st2" d="M440.2 113.6h-56.8c-25.3 0-45.8-20.5-45.8-45.8S358.1 22 383.4 22h56.8c6.1 0 11-4.9 11-11s-4.9-11-11-11h-56.8c-37.4 0-67.8 30.4-67.8 67.8s30.4 67.8 67.8 67.8h56.8c6.1 0 11-4.9 11-11s-4.9-11-11-11z"/><linearGradient id="e" x1="104.27" x2="315.92" y1="49.85" y2="62.839" gradientUnits="userSpaceOnUse"><stop stop-color="#0283C9" offset="0"/><stop stop-color="#30B9F0" offset="1"/></linearGradient><path class="st3" d="M383.3 56.8c-6.1 0-11 4.9-11 11s4.9 11 11 11h28.4c6.1 0 11-4.9 11-11s-4.9-11-11-11h-28.4z"/><linearGradient id="d" x1="97.262" x2="308.91" y1="163.99" y2="176.98" gradientUnits="userSpaceOnUse"><stop stop-color="#0283C9" offset="0"/><stop stop-color="#30B9F0" offset="1"/></linearGradient><path class="st4" d="M268.3 185.2h-14.6l.1-26.7c0-1-.3-1.8-1-2.5s-1.5-1-2.5-1-1.8.3-2.4 1c-.6.6-.9 1.5-.9 2.4l-.1 29.9c0 .9.3 1.7.9 2.4.6.6 1.4.9 2.3.9h18.1c.9 0 1.7-.3 2.3-.9s.9-1.4.9-2.3-.3-1.7-.9-2.3c-.5-.6-1.3-.9-2.2-.9z"/><linearGradient id="c" x1="97.51" x2="309.16" y1="159.95" y2="172.94" gradientUnits="userSpaceOnUse"><stop stop-color="#0283C9" offset="0"/><stop stop-color="#30B9F0" offset="1"/></linearGradient><path class="st5" d="M325.3 156.5c-.4-.8-1.2-1.7-2.9-1.7-1.4 0-2.6.8-3.6 2.5l-8.8 14.8-8.8-15c-.9-1.5-2-2.3-3.4-2.3-1.7 0-2.6.9-3 1.7s-.7 2 .3 3.6l11.4 19.2v9.2c0 .9.3 1.8 1 2.4.7.7 1.5 1 2.4 1 1 0 1.8-.3 2.4-.9.7-.6 1-1.5 1-2.4v-9.3L325 160c.9-1.5.7-2.7.3-3.5z"/><linearGradient id="b" x1="97.704" x2="309.35" y1="156.78" y2="169.77" gradientUnits="userSpaceOnUse"><stop stop-color="#0283C9" offset="0"/><stop stop-color="#30B9F0" offset="1"/></linearGradient><path class="st6" d="M369.9 154.4c-5.2 0-9.7 1.9-13.3 5.6-3.7 3.7-5.5 8.2-5.5 13.5 0 5.2 1.8 9.7 5.5 13.4 3.6 3.7 8.1 5.6 13.3 5.6h.1c5.2 0 9.6-1.9 13.3-5.5 3.7-3.7 5.5-8.2 5.5-13.4s-1.8-9.8-5.5-13.5c-3.8-3.7-8.2-5.6-13.4-5.7zm-.1 31.4c-3.3 0-6-1.2-8.3-3.6s-3.4-5.3-3.4-8.7 1.1-6.3 3.5-8.7c2.3-2.4 5-3.6 8.2-3.6 3.3 0 6 1.2 8.3 3.6 2.3 2.5 3.4 5.3 3.4 8.8 0 3.4-1.1 6.2-3.5 8.7-2.2 2.3-4.9 3.5-8.2 3.5z"/><linearGradient id="a" x1="97.935" x2="309.58" y1="153.02" y2="166.01" gradientUnits="userSpaceOnUse"><stop stop-color="#0283C9" offset="0"/><stop stop-color="#30B9F0" offset="1"/></linearGradient><path class="st7" d="M448 156.1c-.6-.6-1.4-1-2.4-1s-1.8.3-2.4.9-1 1.5-1 2.4V180l-16.5-22c-1.3-2-2.8-3-4.5-3-1.2 0-2.1.4-2.8 1.2-.6.7-1 1.7-1 2.9l-.1 29.6c0 .9.3 1.8 1 2.4.7.7 1.5 1 2.4 1 1 0 1.8-.3 2.4-.9.7-.6 1-1.5 1-2.4v-21.2l16.2 21.7c.8 1 1.5 1.8 2.1 2.2.7.5 1.6.8 2.7.8s2-.4 2.6-1.2c.6-.7.9-1.7.9-2.9l.1-29.6c.2-1.1-.1-1.9-.7-2.5z"/></svg>